<!--?xml version="1.0" standalone="no"?-->

<svg version="1.0" xmlns="http://www.w3.org/2000/svg" width="293.000000pt" height="300.000000pt" viewBox="0 0 293.000000 300.000000" preserveAspectRatio="xMidYMid meet">
<g transform="translate(0.000000,300.000000) scale(0.100000,-0.100000)" fill="#0D0D0D" stroke="none">
<path d="M1265 2726 c-94 -26 -205 -80 -295 -144 -99 -70 -290 -269 -290 -303
0 -18 64 13 112 56 212 185 468 310 663 322 199 12 374 -69 577 -265 72 -69
102 -93 118 -90 20 3 18 8 -29 73 -101 139 -230 250 -365 312 -139 66 -339 82
-491 39z" id="node1" class="node"></path>
<path d="M630 1970 l0 -50 780 0 780 0 0 50 0 50 -780 0 -780 0 0 -50z" id="node2" class="node"></path>
<path d="M905 1800 c-88 -4 -182 -8 -209 -9 l-49 -1 7 -57 c9 -81 51 -160 104
-198 40 -27 51 -30 121 -30 69 0 85 4 152 37 67 33 222 158 298 242 l24 26
-144 -2 c-79 -1 -216 -5 -304 -8z" id="node3" class="node"></path>
<path d="M1560 1745 c185 -189 332 -266 465 -241 80 15 159 125 167 231 l3 50
-80 6 c-44 4 -201 10 -350 14 l-270 7 65 -67z" id="node4" class="node"></path>
<path d="M590 1514 c-15 -38 -12 -66 11 -120 12 -27 24 -51 26 -54 2 -2 22 15
43 39 l39 43 -51 59 c-28 33 -53 59 -55 59 -2 0 -8 -12 -13 -26z" id="node5" class="node"></path>
<path d="M2188 1486 c-27 -30 -48 -57 -48 -61 0 -10 62 -85 70 -85 4 0 17 23
28 50 16 38 20 62 15 100 -3 28 -9 50 -12 50 -3 0 -27 -25 -53 -54z" id="node6" class="node"></path>
<path d="M1351 1340 c-109 -39 -199 -112 -292 -236 -73 -98 -152 -173 -206
-199 -36 -17 -59 -43 -27 -31 10 4 37 14 60 22 71 24 134 65 197 127 72 71
169 136 269 179 150 66 271 36 406 -100 37 -38 84 -80 104 -95 49 -36 170 -99
177 -92 3 3 -18 26 -47 51 -28 25 -95 99 -147 164 -150 187 -217 230 -355 230
-58 -1 -102 -7 -139 -20z" id="node7" class="node"></path>
<path d="M371 1158 c-46 -13 -132 -69 -160 -104 l-23 -29 25 -3 c33 -4 111 36
167 86 51 45 47 65 -9 50z" id="node8" class="node"></path>
<path d="M2510 1152 c0 -22 55 -68 125 -105 52 -28 95 -35 95 -16 0 28 -131
118 -192 133 -23 5 -28 3 -28 -12z" id="node9" class="node"></path>
<path d="M2460 1082 c0 -38 147 -152 195 -152 54 0 -62 115 -157 155 -36 14
-38 14 -38 -3z" id="node10" class="node"></path>
<path d="M413 1080 c-56 -23 -163 -116 -163 -142 0 -17 49 -6 91 20 113 72
164 159 72 122z" id="node11" class="node"></path>
<path d="M439 985 c-55 -33 -129 -105 -129 -125 0 -35 115 26 178 94 40 43 47
67 19 65 -7 0 -37 -16 -68 -34z" id="node12" class="node"></path>
<path d="M2403 1004 c-11 -28 116 -134 180 -149 77 -19 -20 92 -130 149 -40
20 -42 20 -50 0z" id="node13" class="node"></path>
<path d="M525 924 c-56 -37 -83 -63 -117 -108 -35 -48 -22 -63 31 -36 43 22
154 135 149 152 -7 21 -22 19 -63 -8z" id="node14" class="node"></path>
<path d="M2340 931 c0 -41 131 -161 176 -161 24 0 24 1 10 28 -23 43 -125 135
-163 146 -19 6 -23 3 -23 -13z" id="node15" class="node"></path>
<path d="M1370 861 c-47 -15 -108 -60 -144 -106 -53 -70 -71 -160 -60 -305 l9
-115 43 -3 42 -3 0 184 c0 149 3 187 15 197 30 25 35 0 35 -191 l0 -189 35 0
35 0 2 218 c3 209 4 217 23 217 19 0 20 -8 23 -217 l2 -218 35 0 35 0 0 221 0
220 23 -3 c22 -3 22 -3 25 -220 l2 -218 35 0 35 0 0 195 c0 107 3 195 8 195
28 -1 32 -21 34 -200 l3 -185 41 -3 41 -3 5 123 c8 194 -15 274 -98 348 -59
51 -109 70 -189 69 -38 0 -81 -4 -95 -8z" id="node16" class="node"></path>
<path d="M851 710 c-41 -10 -76 -35 -115 -83 -24 -30 -31 -49 -34 -97 -8 -103
49 -184 152 -215 88 -27 194 23 235 109 47 100 7 221 -89 271 -34 18 -108 25
-149 15z m114 -136 c32 -29 34 -80 4 -118 -28 -36 -89 -37 -124 -1 -78 77 39
194 120 119z" id="node17" class="node"></path>
<path d="M1995 715 c-5 -2 -22 -6 -37 -9 -39 -9 -98 -64 -119 -111 -68 -150
73 -322 231 -281 99 26 160 101 160 197 0 63 -31 129 -75 163 -44 34 -122 54
-160 41z m90 -141 c32 -29 34 -80 4 -118 -28 -36 -89 -37 -124 -1 -76 75 41
192 120 119z" id="node18" class="node"></path>
</g>
<g transform="translate(0.000000,300.000000) scale(0.100000,-0.100000)" fill="#A1A1A1" stroke="none">

<path d="M844 573 c-56 -52 -15 -143 65 -143 49 0 81 35 81 87 0 72 -91 107
-146 56z" id="node20" class="node"></path>
<path d="M1964 567 c-50 -60 -14 -137 65 -137 49 0 81 35 81 87 0 76 -96 109
-146 50z" id="node21" class="node"></path>
</g>
</svg>